<?xml version="1.0" encoding="UTF-8"?><svg id="Layer_2" xmlns="http://www.w3.org/2000/svg" viewBox="0 0 742.3 505.81"><g id="Layer_1-2"><path d="M204.09,292.12l25.73-11.25c3.36-8.77,6.09-17.9,10.08-26.43,10.43-22.29,41.56-66.02,67.69-68.31,30.55-2.67,36.46,21.99,27.5,46.51-8.3,22.7-37.26,46.26-60.26,52.74-4.23,1.19-8.07,3.25-11.75-.26-.48,6.91-7.14,25.61,4.45,25.02,16.21-.82,42.64-23.56,54.56-34.5,6.95-6.38,21.28-19.52,26.4-26.6,11.12-15.39,22.62-59.58,34.56-69.45,5.63-4.65,13.74-2.02,16.9,4.16,5.17,10.08-10.38,40.62-8.87,42.37,2.53-.65,5.43-3.32,7.47-5.02,14.21-11.83,31.4-30.21,50.44-15.39,19.26,15,11.35,39.27,4.1,58.41,4.61-3.84,8.97-8.04,13.52-11.97,11.17-9.66,11.58-9.47,18.99-23.01,5.52-10.07,17.02-39.61,25.78-44.22,4.63-2.44,8.19-2.24,12.21,1.19,9.86,8.41-3.62,28.65-2.5,30.01,12.27-7.97,25.92-20.81,41.68-15.19,35.62,12.7,14.31,59.33-4.68,77.69l24.56-6.44c1.84-35.92,22.25-69.92,49.42-92.58,13.75-11.47,31.63-16.78,43.45.58,20.54,30.18-23.19,76.3-47.12,91.75-4.97,3.2-10.28,6.4-16.24,7.26.06,7.2,2.39,17.18,10.66,18.69,20.63,3.78,54.04-17.29,70.58-28.95,14.81-10.44,27.85-23.59,43.27-32.82,6.58-.98,6.1,8.54,4.94,13.03-3.18,12.34-41.75,46.57-53.21,54.79-32.56,23.35-88.94,46.21-104.33-7.82-24.83,12.71-62.26,35.3-90.65,34.61-6.97-.17-10.36-3.77-16.34-4.18-2.56,1.38-23.43,45.67-26.17,51.89-11.89,26.94-20.41,56.82-32.96,83.04-4.96,10.35-10.07,22.98-24.1,17.38-22.04-8.8-5.14-45.72,1.06-60.42,9.79-23.2,21.52-45.64,31-69l32.17-65.32c-22.04,15.41-40.36,37.3-67.56,43.93-12.15,2.96-24.29,4.78-33.94-4.68-2.56.19-12.54,21.62-14.35,25.39-21.39,44.67-35.52,92.99-55.96,137.04-5.27,11.36-12.64,27.33-27.67,16.32-16.34-11.97-7.73-29.72-2.25-45.24,7.8-22.08,18.12-45.9,27.57-67.43,12.54-28.56,27.34-55.98,40.17-84.32-1.88-.43-2.37,1.06-3.5,1.99-10.36,8.55-16.98,16.72-29.48,23.52-32.26,17.57-60.74,6.75-63.52-31.52l-18.06,13c2.25,16.49-1.24,32.95-6.41,48.53-14.63,44.13-49.23,79.85-88.12,103.88-26.9,16.62-76.51,38.75-104.44,14.61-31.78-27.46,16.33-71.48,37.51-89.54,38.18-32.57,83.81-54.47,126.69-79.92-3.39-19.25-20.2-31.98-35.36-42.38-22.66-15.54-76.7-38.88-80.2-68.8-7.03-60.01,77.81-130.1,122.58-160.21,30.27-20.36,98.96-59.66,129.34-23.71,29.27,34.64-5.18,90.9-27.21,120.84-7.11,9.66-24.15,31.43-33.91,37.09-9.96,5.78-19.14.5-17.93-10.92.62-5.85,23.11-35.14,28.05-42.96,11-17.41,33.71-54.59,30.89-74.93-2.39-17.3-24.61-10.45-35.68-6.86-46.26,15.01-134.83,85.44-152.71,131.29-9.16,23.5,4.42,34.67,21.59,48.38,28.67,22.9,66.3,37.97,79.91,75.61ZM656.07,199.12c-9.87,3.87-18.45,14.64-24.22,23.27s-12.03,19.51-12.76,29.73c15.16-14.46,32.92-31.64,36.99-52.99ZM309.07,217.12c-2.62-2.72-16.95,12.13-18.97,14.52-8.62,10.26-15.55,23.92-20.02,36.47,10.55-7.61,21.57-17.61,29.4-28.09,4.95-6.61,10.25-14.14,9.58-22.91ZM434.37,242.14c1.18-6.06-3.55-11.82-9.71-11.51-4.13.21-7.68,2.33-12.89,5.67-15.98,10.25-34.28,33.57-40.45,51.55-1.6,4.66-5.28,11.44,2.81,9.84,9.38-1.85,34.16-15.86,41.48-22.55,8.13-7.44,16.39-20.79,18.77-33ZM547.09,233.12c-4.42,0-8.76,1.35-12.32,3.96-13.46,9.86-25.14,23.18-34.51,36.73-1.82,2.63-11.88,18.35-12.04,19.98-.62,6.26,11.92,1.94,14.84.81,19.63-7.6,43.44-31.24,51.19-50.81l.03-.08c2.02-5.08-1.73-10.59-7.19-10.59h0ZM36.08,449.11c14.75,3.54,31.18-3.88,44.68-9.81,44.23-19.44,85.98-58.78,94.31-108.18-37.03,26.02-75.82,50.45-109,81.49-7.79,7.29-24.71,23.89-29.06,32.94-.58,1.21-1.27,2.05-.93,3.57Z"/></g></svg>